<svg width="170" height="30" viewBox="0 0 170 30" fill="none" xmlns="http://www.w3.org/2000/svg">
<path d="M137.96 1.44H117.2V2.92H136.48V14.6H120.88V16.08H136.48V29.28H137.96V1.44Z" fill="white"/>
<path d="M0 28.44V0.599999H10.36C12.3867 0.599999 14.2533 1.10667 15.96 2.12C17.6933 3.13333 19.0667 4.50667 20.08 6.24C21.0933 7.94667 21.6 9.81333 21.6 11.84V17.2C21.6 19.2267 21.0933 21.1067 20.08 22.84C19.0667 24.5467 17.6933 25.9067 15.96 26.92C14.2533 27.9333 12.3867 28.44 10.36 28.44H0Z" fill="white"/>
<path d="M37.1694 14L45.8094 2.16H31.5694V0.680001H47.6494V2.16L41.2894 10.84C42.7027 11.1067 43.9694 11.6667 45.0894 12.52C46.236 13.3733 47.1294 14.44 47.7694 15.72C48.436 17 48.7694 18.3733 48.7694 19.84C48.7694 21.4933 48.356 23.0267 47.5294 24.44C46.7027 25.8533 45.5827 26.9733 44.1694 27.8C42.7827 28.6267 41.2627 29.04 39.6094 29.04C37.956 29.04 36.4227 28.6267 35.0094 27.8C33.6227 26.9733 32.516 25.8533 31.6894 24.44C30.8627 23.0267 30.4494 21.4933 30.4494 19.84H31.8894C31.8894 21.2267 32.236 22.52 32.9294 23.72C33.6227 24.8933 34.556 25.8267 35.7294 26.52C36.9294 27.2133 38.2227 27.56 39.6094 27.56C40.996 27.56 42.276 27.2133 43.4494 26.52C44.6494 25.8267 45.596 24.8933 46.2894 23.72C46.9827 22.52 47.3294 21.2267 47.3294 19.84C47.3294 18.5333 47.0094 17.32 46.3694 16.2C45.756 15.08 44.9027 14.16 43.8094 13.44C42.7427 12.72 41.5694 12.3067 40.2894 12.2L38.3694 14.84L37.1694 14Z" fill="white"/>
<path d="M59.6587 17.8C59.6587 19.56 60.0987 21.1867 60.9787 22.68C61.8854 24.1733 63.0854 25.36 64.5788 26.24C66.0988 27.12 67.7387 27.56 69.4987 27.56C71.3121 27.56 72.9521 27.2 74.4187 26.48C75.8854 25.76 77.0321 24.76 77.8587 23.48C78.7121 22.2 79.1521 20.76 79.1787 19.16H80.6188C80.6188 21 80.1254 22.68 79.1387 24.2C78.1787 25.6933 76.8454 26.88 75.1387 27.76C73.4587 28.6133 71.5787 29.04 69.4987 29.04C67.4721 29.04 65.5921 28.5333 63.8587 27.52C62.1254 26.5067 60.7521 25.1467 59.7388 23.44C58.7254 21.7067 58.2188 19.8267 58.2188 17.8V11.24C58.2188 9.21333 58.7121 7.34667 59.6987 5.64C60.7121 3.90667 62.0721 2.53333 63.7788 1.52C65.5121 0.506667 67.3921 0 69.4188 0C71.4721 0 73.3388 0.44 75.0188 1.32C76.7254 2.17333 78.0721 3.36 79.0588 4.88C80.0454 6.37333 80.5387 8.04 80.5387 9.88H79.0988C79.0721 8.28 78.6321 6.84 77.7788 5.56C76.9254 4.28 75.7654 3.28 74.2988 2.56C72.8588 1.84 71.2321 1.48 69.4188 1.48C67.6588 1.48 66.0321 1.92 64.5387 2.8C63.0454 3.68 61.8587 4.86667 60.9787 6.36C60.0987 7.85333 59.6587 9.48 59.6587 11.24V17.8Z" fill="white"/>
<path d="M98.8281 0C100.908 0 102.828 0.52 104.588 1.56C106.348 2.57333 107.735 3.96 108.748 5.72C109.788 7.48 110.308 9.4 110.308 11.48V17.56C110.308 19.64 109.788 21.56 108.748 23.32C107.735 25.08 106.348 26.48 104.588 27.52C102.828 28.5333 100.908 29.04 98.8281 29.04C96.7481 29.04 94.8281 28.5333 93.0681 27.52C91.3081 26.48 89.9081 25.08 88.8681 23.32C87.8548 21.56 87.3481 19.64 87.3481 17.56V11.48C87.3481 9.4 87.8548 7.48 88.8681 5.72C89.9081 3.96 91.3081 2.57333 93.0681 1.56C94.8281 0.52 96.7481 0 98.8281 0ZM88.8281 17.56C88.8281 19.3733 89.2681 21.0533 90.1481 22.6C91.0548 24.12 92.2681 25.3333 93.7881 26.24C95.3348 27.12 97.0148 27.56 98.8281 27.56C100.641 27.56 102.308 27.12 103.828 26.24C105.375 25.3333 106.588 24.12 107.468 22.6C108.375 21.0533 108.828 19.3733 108.828 17.56V11.48C108.828 9.66667 108.375 8 107.468 6.48C106.588 4.93333 105.375 3.72 103.828 2.84C102.308 1.93333 100.641 1.48 98.8281 1.48C97.0148 1.48 95.3348 1.93333 93.7881 2.84C92.2681 3.72 91.0548 4.93333 90.1481 6.48C89.2681 8 88.8281 9.66667 88.8281 11.48V17.56Z" fill="white"/>
<path d="M148.207 0.599999L158.087 15.48L167.887 0.599999H169.647L158.807 17.04V28.44H157.327V17.04L146.447 0.599999H148.207Z" fill="white"/>
</svg>
